Coordinates
version=1
nRows=25
nColumns=34
inDegrees=no

Units are S.I. units (second, meters, Newtons, ...)
If the header above contains a line with 'inDegrees', this indicates whether rotational values are in degrees (yes) or radians (no).

endheader
time	pelvis_tilt	pelvis_list	pelvis_rotation	pelvis_tx	pelvis_ty	pelvis_tz	hip_flexion_r	hip_adduction_r	hip_rotation_r	knee_angle_r	ankle_angle_r	subtalar_angle_r	mtp_angle_r	hip_flexion_l	hip_adduction_l	hip_rotation_l	knee_angle_l	ankle_angle_l	subtalar_angle_l	mtp_angle_l	lumbar_extension	lumbar_bending	lumbar_rotation	arm_flex_r	arm_add_r	arm_rot_r	elbow_flex_r	pro_sup_r	arm_flex_l	arm_add_l	arm_rot_l	elbow_flex_l	pro_sup_l
2.03	0.00479396	-0.0831148	-0.0611278	-0.193039	1.53364	-0.598857	0.121372	-0.0773817	-0.193684	0.168698	-0.442866	0.273644	-0.019656	0.13841	-0.245624	-0.376013	0.400147	-0.738802	-0.130204	-0.019656	-0.396916	0.00398138	0.049017	5.72359	-0.618945	5.92388	1.88662	2.09118	-0.343098	-0.639255	-0.369742	1.62568	2.0355
2.04	0.0135939	-0.0853494	-0.0588703	-0.194306	1.54054	-0.59976	0.115831	-0.0717058	-0.194447	0.160544	-0.414521	0.272978	-0.019656	0.13798	-0.248097	-0.385859	0.409496	-0.720068	-0.153596	-0.019656	-0.410834	0.00477299	0.0502934	5.75183	-0.593539	5.95967	1.83853	2.08863	-0.326076	-0.620105	-0.328439	1.60555	2.04989
2.05	0.0219824	-0.0872937	-0.0577815	-0.195277	1.54633	-0.600678	0.110308	-0.0671092	-0.200653	0.152889	-0.386976	0.266789	-0.019656	0.134668	-0.249915	-0.399703	0.413027	-0.701471	-0.171644	-0.019656	-0.422869	0.00556979	0.0516688	5.77853	-0.571087	5.99274	1.79633	2.0873	-0.314368	-0.601189	-0.292818	1.58925	2.06248
2.06	0.0301911	-0.0888155	-0.057196	-0.195999	1.55105	-0.601671	0.10464	-0.0638577	-0.212004	0.146171	-0.360504	0.256353	-0.019656	0.12877	-0.250835	-0.415973	0.411476	-0.683561	-0.184288	-0.019656	-0.433523	0.00640987	0.0525568	5.80382	-0.551016	6.02346	1.76034	2.08703	-0.3056	-0.582282	-0.260972	1.57653	2.07295
2.07	0.0383267	-0.0898558	-0.056584	-0.19652	1.5547	-0.602772	0.0988113	-0.0620432	-0.227572	0.140711	-0.335441	0.24294	-0.019656	0.120795	-0.250764	-0.433393	0.405793	-0.666879	-0.192091	-0.019656	-0.44315	0.00735465	0.0525434	5.82768	-0.532854	6.05202	1.73069	2.08754	-0.298159	-0.563442	-0.231574	1.5672	2.08107
2.08	0.0463783	-0.0904222	-0.055602	-0.196883	1.5573	-0.603995	0.0929377	-0.0616008	-0.245823	0.136712	-0.312144	0.227664	-0.019656	0.111381	-0.249745	-0.450992	0.397031	-0.651904	-0.196058	-0.019656	-0.45194	0.00846539	0.051445	5.84999	-0.516246	6.07853	1.70727	2.08846	-0.291105	-0.544906	-0.203822	1.56102	2.08681
2.09	0.0542494	-0.0905707	-0.0540961	-0.197125	1.55884	-0.605331	0.0872203	-0.0623523	-0.264797	0.134281	-0.2909	0.211446	-0.019656	0.101194	-0.247924	-0.468047	0.386223	-0.638983	-0.197398	-0.019656	-0.459938	0.00978454	0.0493175	5.87058	-0.500937	6.10304	1.68983	2.08944	-0.283983	-0.527001	-0.177285	1.55774	2.0904
2.1	0.0618004	-0.0903827	-0.0520688	-0.197273	1.5593	-0.60676	0.081897	-0.0640627	-0.282402	0.133457	-0.271852	0.195025	-0.019656	0.0908467	-0.245496	-0.484005	0.374296	-0.62827	-0.197306	-0.019656	-0.467091	0.0113258	0.0464142	5.88926	-0.486768	6.12559	1.67798	2.09018	-0.276629	-0.510065	-0.151754	1.55701	2.09224
2.11	0.0688933	-0.0899456	-0.0496239	-0.197344	1.55869	-0.608256	0.077192	-0.0664907	-0.296742	0.134244	-0.254942	0.178976	-0.019656	0.080836	-0.242667	-0.498402	0.362017	-0.61967	-0.196809	-0.019656	-0.47331	0.0130724	0.0431055	5.90589	-0.473661	6.14624	1.6712	2.09044	-0.269022	-0.494391	-0.127118	1.55843	2.0928
2.12	0.0754289	-0.0893395	-0.0469104	-0.197351	1.55698	-0.609789	0.0732756	-0.0694254	-0.306411	0.136635	-0.239935	0.163727	-0.019656	0.0715143	-0.239623	-0.510821	0.349992	-0.612814	-0.196675	-0.019656	-0.478521	0.0149794	0.0397868	5.92039	-0.461616	6.16508	1.66892	2.09004	-0.261195	-0.480198	-0.103298	1.56162	2.09255
2.13	0.0813686	-0.0886304	-0.0440734	-0.197302	1.55419	-0.611336	0.0702401	-0.0727049	-0.310684	0.140617	-0.226478	0.149571	-0.019656	0.0630905	-0.236523	-0.520885	0.338692	-0.607068	-0.197389	-0.019656	-0.482699	0.0169799	0.0367959	5.93283	-0.450684	6.18225	1.67049	2.0889	-0.253191	-0.467604	-0.0802346	1.56625	2.09189
2.14	0.0867386	-0.0878689	-0.04122	-0.197202	1.55031	-0.612875	0.0680939	-0.0762186	-0.309569	0.146172	-0.214189	0.136658	-0.019656	0.0556538	-0.233506	-0.528283	0.328504	-0.601586	-0.199177	-0.019656	-0.485884	0.0189965	0.0343573	5.94337	-0.440948	6.19795	1.67524	2.08708	-0.245059	-0.456634	-0.0578847	1.57204	2.09113
2.15	0.0916197	-0.0870938	-0.0384018	-0.197054	1.54536	-0.614393	0.0667676	-0.0798961	-0.303713	0.153258	-0.202727	0.124988	-0.019656	0.0492069	-0.2307	-0.532824	0.319771	-0.595397	-0.202068	-0.019656	-0.488171	0.0209573	0.0325587	5.95228	-0.432486	6.21235	1.68247	2.08474	-0.236857	-0.447234	-0.0362312	1.57883	2.09045
2.16	0.0961268	-0.0863377	-0.0356208	-0.19686	1.53934	-0.615879	0.0661309	-0.0836881	-0.294195	0.161795	-0.191837	0.114418	-0.019656	0.0437003	-0.228234	-0.53448	0.312815	-0.587525	-0.205977	-0.019656	-0.489691	0.0228073	0.0313567	5.95991	-0.425351	6.22562	1.6915	2.08221	-0.228661	-0.439304	-0.0152853	1.58647	2.08994
2.17	0.100383	-0.0856289	-0.0328541	-0.196625	1.53228	-0.617325	0.0660215	-0.0875497	-0.282261	0.171651	-0.181345	0.10467	-0.019656	0.0390606	-0.226249	-0.533418	0.307943	-0.577121	-0.210784	-0.019656	-0.490588	0.0245096	0.0306072	5.96664	-0.419544	6.23785	1.70168	2.07994	-0.220579	-0.432728	0.00490084	1.5949	2.08962
2.18	0.104497	-0.0849909	-0.0300833	-0.19635	1.52418	-0.618725	0.0662742	-0.0914333	-0.269087	0.182655	-0.171128	0.0953907	-0.019656	0.0352118	-0.224888	-0.529999	0.305435	-0.563582	-0.216393	-0.019656	-0.491006	0.0260367	0.0301112	5.97289	-0.415007	6.24912	1.71242	2.07843	-0.212747	-0.427393	0.0242257	1.60404	2.08945
2.19	0.108559	-0.0844407	-0.0273138	-0.19604	1.51505	-0.620066	0.0667417	-0.0952879	-0.255618	0.194613	-0.161063	0.0862133	-0.019656	0.0320842	-0.224288	-0.524722	0.305517	-0.54664	-0.222766	-0.019656	-0.49108	0.0273601	0.0296729	5.97902	-0.41161	6.25945	1.7232	2.07809	-0.205292	-0.423192	0.0425553	1.61382	2.08938
2.2	0.112642	-0.0839876	-0.0245817	-0.195704	1.50491	-0.621336	0.067304	-0.0990667	-0.242484	0.207339	-0.150983	0.0768113	-0.019656	0.0296122	-0.22456	-0.518137	0.308336	-0.526382	-0.229936	-0.019656	-0.490948	0.0284408	0.0291554	5.98537	-0.409167	6.26886	1.73361	2.079	-0.198292	-0.42003	0.059768	1.62417	2.08936
2.21	0.116807	-0.0836289	-0.0219519	-0.195354	1.49377	-0.622523	0.0678764	-0.102741	-0.230008	0.220682	-0.140657	0.0669438	-0.019656	0.0277302	-0.225761	-0.510739	0.313928	-0.503233	-0.238013	-0.019656	-0.490766	0.0292218	0.0285157	5.99216	-0.407452	6.27732	1.74337	2.08084	-0.191732	-0.417822	0.075802	1.63496	2.08934
2.22	0.121115	-0.0833455	-0.0195134	-0.19501	1.48163	-0.623616	0.0684176	-0.106311	-0.218263	0.234545	-0.12984	0.0564707	-0.019656	0.0263707	-0.227876	-0.502884	0.322201	-0.477876	-0.247164	-0.019656	-0.490717	0.0296257	0.0278087	5.99954	-0.406228	6.28478	1.75232	2.08315	-0.185503	-0.41649	0.0906735	1.64606	2.0893
2.23	0.125624	-0.0831051	-0.0173637	-0.194698	1.46851	-0.624608	0.0689336	-0.10981	-0.207173	0.248895	-0.118382	0.0453471	-0.019656	0.0254708	-0.230823	-0.49473	0.332939	-0.451195	-0.257573	-0.019656	-0.49101	0.0295654	0.0271609	6.00757	-0.405274	6.29113	1.7604	2.08549	-0.179414	-0.415951	0.104463	1.65733	2.08928
2.24	0.130382	-0.0828742	-0.0155807	-0.194452	1.45443	-0.625497	0.0694787	-0.113287	-0.196623	0.263753	-0.106383	0.0336016	-0.019656	0.0249899	-0.23447	-0.48622	0.345813	-0.424246	-0.2694	-0.019656	-0.491865	0.0289706	0.0267271	6.01626	-0.404417	6.29629	1.76763	2.08754	-0.173229	-0.416113	0.117289	1.66863	2.0893
2.25	0.135419	-0.0826351	-0.0141937	-0.194305	1.43938	-0.626289	0.0701568	-0.116795	-0.18655	0.279179	-0.0943427	0.0212964	-0.019656	0.0249322	-0.238671	-0.477106	0.360413	-0.398289	-0.282742	-0.019656	-0.493476	0.0278185	0.0266443	6.02561	-0.403547	6.30021	1.7741	2.08914	-0.166698	-0.416863	0.129277	1.67981	2.08943
2.26	0.140726	-0.0823953	-0.0131654	-0.194295	1.42337	-0.626995	0.0711261	-0.12037	-0.176975	0.295263	-0.0832291	0.00847591	-0.019656	0.0253681	-0.243296	-0.466995	0.376282	-0.37482	-0.297613	-0.019656	-0.495969	0.0261533	0.0269959	6.03557	-0.402627	6.30287	1.77991	2.09027	-0.159584	-0.418066	0.140538	1.69074	2.08976
2.27	0.146247	-0.0821891	-0.0123936	-0.194448	1.4064	-0.627632	0.0725983	-0.124021	-0.167991	0.31211	-0.0744351	-0.00487584	-0.019656	0.0264376	-0.248244	-0.455427	0.392957	-0.355521	-0.313934	-0.019656	-0.499371	0.024089	0.0277964	6.04615	-0.401685	6.30432	1.78518	2.09099	-0.151686	-0.419567	0.151171	1.70129	2.09031
